<svg xmlns="http://www.w3.org/2000/svg" xmlns:xlink="http://www.w3.org/1999/xlink"><symbol id="bars-solid" viewBox="0 0 448 512"><path fill="currentColor" d="M16 132h416c8.837 0 16-7.163 16-16V76c0-8.837-7.163-16-16-16H16C7.163 60 0 67.163 0 76v40c0 8.837 7.163 16 16 16zm0 160h416c8.837 0 16-7.163 16-16v-40c0-8.837-7.163-16-16-16H16c-8.837 0-16 7.163-16 16v40c0 8.837 7.163 16 16 16zm0 160h416c8.837 0 16-7.163 16-16v-40c0-8.837-7.163-16-16-16H16c-8.837 0-16 7.163-16 16v40c0 8.837 7.163 16 16 16z"/></symbol><symbol id="outline-account_circle-24px" viewBox="0 0 24 24">
<g id="Header_x2F_BG" display="none">
	<rect x="-402" y="-50" display="inline" fill="#F1F1F2" width="520" height="520"/>
</g>
<g id="Bounding_Boxes">
	<g id="ui_x5F_spec_x5F_header_copy_3">
	</g>
	<path fill="none" d="M0,0h24v24H0V0z"/>
</g>
<g id="Rounded" display="none">
	<g id="ui_x5F_spec_x5F_header_copy_5" display="inline">
	</g>
	<path display="inline" d="M12,2C6.48,2,2,6.48,2,12s4.48,10,10,10s10-4.48,10-10S17.52,2,12,2z M12,5c1.66,0,3,1.34,3,3
		s-1.34,3-3,3S9,9.66,9,8S10.34,5,12,5z M12,19.2c-2.5,0-4.71-1.28-6-3.22c0.03-1.99,4-3.08,6-3.08c1.99,0,5.97,1.09,6,3.08
		C16.71,17.92,14.5,19.2,12,19.2z"/>
</g>
<g id="Sharp" display="none">
	<g id="ui_x5F_spec_x5F_header_copy_4" display="inline">
	</g>
	<path display="inline" d="M12,2C6.48,2,2,6.48,2,12s4.48,10,10,10s10-4.48,10-10S17.52,2,12,2z M12,5c1.66,0,3,1.34,3,3
		s-1.34,3-3,3S9,9.66,9,8S10.34,5,12,5z M12,19.2c-2.5,0-4.71-1.28-6-3.22c0.03-1.99,4-3.08,6-3.08c1.99,0,5.97,1.09,6,3.08
		C16.71,17.92,14.5,19.2,12,19.2z"/>
</g>
<g id="Outline">
	<g id="ui_x5F_spec_x5F_header">
	</g>
	<g>
		<path d="M12,2C6.48,2,2,6.48,2,12c0,5.52,4.48,10,10,10c5.52,0,10-4.48,10-10C22,6.48,17.52,2,12,2z M7.07,18.28
			c0.43-0.9,3.05-1.78,4.93-1.78s4.51,0.88,4.93,1.78C15.57,19.36,13.86,20,12,20S8.43,19.36,7.07,18.28z M18.36,16.83
			c-1.43-1.74-4.9-2.33-6.36-2.33s-4.93,0.59-6.36,2.33C4.62,15.49,4,13.82,4,12c0-4.41,3.59-8,8-8c4.41,0,8,3.59,8,8
			C20,13.82,19.38,15.49,18.36,16.83z"/>
		<path d="M12,6c-1.94,0-3.5,1.56-3.5,3.5S10.06,13,12,13c1.94,0,3.5-1.56,3.5-3.5S13.94,6,12,6z M12,11c-0.83,0-1.5-0.67-1.5-1.5
			C10.5,8.67,11.17,8,12,8c0.83,0,1.5,0.67,1.5,1.5C13.5,10.33,12.83,11,12,11z"/>
	</g>
</g>
<g id="Duotone" display="none">
	<g id="ui_x5F_spec_x5F_header_copy_2" display="inline">
	</g>
	<g display="inline">
		<path opacity="0.3" d="M12,4c-4.41,0-8,3.59-8,8c0,1.82,0.62,3.49,1.64,4.83c1.43-1.74,4.9-2.33,6.36-2.33s4.93,0.59,6.36,2.33
			C19.38,15.49,20,13.82,20,12C20,7.59,16.41,4,12,4z M12,13c-1.94,0-3.5-1.56-3.5-3.5S10.06,6,12,6c1.94,0,3.5,1.56,3.5,3.5
			S13.94,13,12,13z"/>
		<g>
			<path d="M12,2C6.48,2,2,6.48,2,12c0,5.52,4.48,10,10,10c5.52,0,10-4.48,10-10C22,6.48,17.52,2,12,2z M7.07,18.28
				c0.43-0.9,3.05-1.78,4.93-1.78s4.51,0.88,4.93,1.78C15.57,19.36,13.86,20,12,20S8.43,19.36,7.07,18.28z M18.36,16.83
				c-1.43-1.74-4.9-2.33-6.36-2.33s-4.93,0.59-6.36,2.33C4.62,15.49,4,13.82,4,12c0-4.41,3.59-8,8-8c4.41,0,8,3.59,8,8
				C20,13.82,19.38,15.49,18.36,16.83z"/>
			<path d="M12,6c-1.94,0-3.5,1.56-3.5,3.5S10.06,13,12,13c1.94,0,3.5-1.56,3.5-3.5S13.94,6,12,6z M12,11c-0.83,0-1.5-0.67-1.5-1.5
				C10.5,8.67,11.17,8,12,8c0.83,0,1.5,0.67,1.5,1.5C13.5,10.33,12.83,11,12,11z"/>
		</g>
	</g>
</g>
<g id="Fill" display="none">
	<g id="ui_x5F_spec_x5F_header_copy" display="inline">
	</g>
	<path display="inline" d="M12,2C6.48,2,2,6.48,2,12s4.48,10,10,10s10-4.48,10-10S17.52,2,12,2z M12,5c1.66,0,3,1.34,3,3
		s-1.34,3-3,3S9,9.66,9,8S10.34,5,12,5z M12,19.2c-2.5,0-4.71-1.28-6-3.22c0.03-1.99,4-3.08,6-3.08c1.99,0,5.97,1.09,6,3.08
		C16.71,17.92,14.5,19.2,12,19.2z"/>
</g>
<g id="nyt_x5F_exporter_x5F_info" display="none">
</g>
</symbol><symbol id="outline-arrow_back_ios-24px" viewBox="0 0 24 24">
<g id="Bounding_Boxes">
	<path opacity="0.87" fill="none" d="M0,0h24v24H0V0z"/>
</g>
<g id="Outline_1_">
	<path d="M17.51,3.87L15.73,2.1L5.84,12l9.9,9.9l1.77-1.77L9.38,12L17.51,3.87z"/>
</g>
</symbol><symbol id="outline-arrow_forward_ios-24px" viewBox="0 0 24 24">
<g id="Bounding_Boxes">
	<path opacity="0.87" fill="none" d="M24,24H0L0,0l24,0V24z"/>
</g>
<g id="Outline_1_">
	<path d="M6.49,20.13l1.77,1.77l9.9-9.9l-9.9-9.9L6.49,3.87L14.62,12L6.49,20.13z"/>
</g>
</symbol><symbol id="outline-favorite-24px" viewBox="0 0 24 24">
<g id="Header_x2F_BG" display="none">
	<rect x="-314" y="-358" display="inline" fill="#F1F1F2" width="520" height="520"/>
</g>
<g id="Bounding_Boxes">
	<g id="ui_x5F_spec_x5F_header_copy_3">
	</g>
	<path fill="none" d="M0,0h24v24H0V0z"/>
</g>
<g id="Rounded" display="none">
	<g id="ui_x5F_spec_x5F_header_copy_5" display="inline">
	</g>
	<path display="inline" d="M13.35,20.13c-0.76,0.69-1.93,0.69-2.69-0.01l-0.11-0.1C5.3,15.27,1.87,12.16,2,8.28
		c0.06-1.7,0.93-3.33,2.34-4.29c2.64-1.8,5.9-0.96,7.66,1.1c1.76-2.06,5.02-2.91,7.66-1.1c1.41,0.96,2.28,2.59,2.34,4.29
		c0.14,3.88-3.3,6.99-8.55,11.76L13.35,20.13z"/>
</g>
<g id="Sharp" display="none">
	<g id="ui_x5F_spec_x5F_header_copy_4" display="inline">
	</g>
	<path display="inline" d="M12,21.35l-1.45-1.32C5.4,15.36,2,12.28,2,8.5C2,5.42,4.42,3,7.5,3c1.74,0,3.41,0.81,4.5,2.09
		C13.09,3.81,14.76,3,16.5,3C19.58,3,22,5.42,22,8.5c0,3.78-3.4,6.86-8.55,11.54L12,21.35z"/>
</g>
<g id="Outline">
	<g id="ui_x5F_spec_x5F_header">
	</g>
	<path d="M12,21.35l-1.45-1.32C5.4,15.36,2,12.28,2,8.5C2,5.42,4.42,3,7.5,3c1.74,0,3.41,0.81,4.5,2.09C13.09,3.81,14.76,3,16.5,3
		C19.58,3,22,5.42,22,8.5c0,3.78-3.4,6.86-8.55,11.54L12,21.35z"/>
</g>
<g id="Duotone" display="none">
	<g id="ui_x5F_spec_x5F_header_copy_2" display="inline">
	</g>
	<g display="inline">
		<path opacity="0.3" d="M16.5,5c-1.54,0-3.04,0.99-3.56,2.36h-1.87C10.54,5.99,9.04,5,7.5,5C5.5,5,4,6.5,4,8.5
			c0,2.89,3.14,5.74,7.9,10.05l0.1,0.1l0.1-0.1C16.86,14.24,20,11.39,20,8.5C20,6.5,18.5,5,16.5,5z"/>
		<path d="M16.5,3c-1.74,0-3.41,0.81-4.5,2.09C10.91,3.81,9.24,3,7.5,3C4.42,3,2,5.42,2,8.5c0,3.78,3.4,6.86,8.55,11.54L12,21.35
			l1.45-1.32C18.6,15.36,22,12.28,22,8.5C22,5.42,19.58,3,16.5,3z M12.1,18.55l-0.1,0.1l-0.1-0.1C7.14,14.24,4,11.39,4,8.5
			C4,6.5,5.5,5,7.5,5c1.54,0,3.04,0.99,3.57,2.36h1.87C13.46,5.99,14.96,5,16.5,5c2,0,3.5,1.5,3.5,3.5
			C20,11.39,16.86,14.24,12.1,18.55z"/>
	</g>
</g>
<g id="Fill" display="none">
	<g id="ui_x5F_spec_x5F_header_copy" display="inline">
	</g>
	<path display="inline" d="M12,21.35l-1.45-1.32C5.4,15.36,2,12.28,2,8.5C2,5.42,4.42,3,7.5,3c1.74,0,3.41,0.81,4.5,2.09
		C13.09,3.81,14.76,3,16.5,3C19.58,3,22,5.42,22,8.5c0,3.78-3.4,6.86-8.55,11.54L12,21.35z"/>
</g>
<g id="nyt_x5F_exporter_x5F_info" display="none">
</g>
</symbol><symbol id="outline-favorite_border-24px" viewBox="0 0 24 24">
<g id="Header_x2F_BG" display="none">
	<rect x="-358" y="-358" display="inline" fill="#F1F1F2" width="520" height="520"/>
</g>
<g id="Bounding_Boxes">
	<g id="ui_x5F_spec_x5F_header_copy_3">
	</g>
	<path fill="none" d="M0,0h24v24H0V0z"/>
</g>
<g id="Rounded" display="none">
	<g id="ui_x5F_spec_x5F_header_copy_5" display="inline">
	</g>
	<path display="inline" d="M19.66,3.99c-2.64-1.8-5.9-0.96-7.66,1.1c-1.76-2.06-5.02-2.91-7.66-1.1C2.94,4.95,2.06,6.57,2,8.28
		c-0.14,3.88,3.3,6.99,8.55,11.76l0.1,0.09c0.76,0.69,1.93,0.69,2.69-0.01l0.11-0.1c5.25-4.76,8.68-7.87,8.55-11.75
		C21.94,6.57,21.06,4.95,19.66,3.99z M12.1,18.55l-0.1,0.1l-0.1-0.1C7.14,14.24,4,11.39,4,8.5C4,6.5,5.5,5,7.5,5
		c1.54,0,3.04,0.99,3.57,2.36h1.87C13.46,5.99,14.96,5,16.5,5c2,0,3.5,1.5,3.5,3.5C20,11.39,16.86,14.24,12.1,18.55z"/>
</g>
<g id="Sharp" display="none">
	<g id="ui_x5F_spec_x5F_header_copy_4" display="inline">
	</g>
	<path display="inline" d="M16.5,3c-1.74,0-3.41,0.81-4.5,2.09C10.91,3.81,9.24,3,7.5,3C4.42,3,2,5.42,2,8.5
		c0,3.78,3.4,6.86,8.55,11.54L12,21.35l1.45-1.32C18.6,15.36,22,12.28,22,8.5C22,5.42,19.58,3,16.5,3z M12.1,18.55l-0.1,0.1
		l-0.1-0.1C7.14,14.24,4,11.39,4,8.5C4,6.5,5.5,5,7.5,5c1.54,0,3.04,0.99,3.57,2.36h1.87C13.46,5.99,14.96,5,16.5,5
		c2,0,3.5,1.5,3.5,3.5C20,11.39,16.86,14.24,12.1,18.55z"/>
</g>
<g id="Outline">
	<g id="ui_x5F_spec_x5F_header">
	</g>
	<path d="M16.5,3c-1.74,0-3.41,0.81-4.5,2.09C10.91,3.81,9.24,3,7.5,3C4.42,3,2,5.42,2,8.5c0,3.78,3.4,6.86,8.55,11.54L12,21.35
		l1.45-1.32C18.6,15.36,22,12.28,22,8.5C22,5.42,19.58,3,16.5,3z M12.1,18.55l-0.1,0.1l-0.1-0.1C7.14,14.24,4,11.39,4,8.5
		C4,6.5,5.5,5,7.5,5c1.54,0,3.04,0.99,3.57,2.36h1.87C13.46,5.99,14.96,5,16.5,5c2,0,3.5,1.5,3.5,3.5
		C20,11.39,16.86,14.24,12.1,18.55z"/>
</g>
<g id="Duotone" display="none">
	<g id="ui_x5F_spec_x5F_header_copy_2" display="inline">
	</g>
	<path display="inline" d="M16.5,3c-1.74,0-3.41,0.81-4.5,2.09C10.91,3.81,9.24,3,7.5,3C4.42,3,2,5.42,2,8.5
		c0,3.78,3.4,6.86,8.55,11.54L12,21.35l1.45-1.32C18.6,15.36,22,12.28,22,8.5C22,5.42,19.58,3,16.5,3z M12.1,18.55l-0.1,0.1
		l-0.1-0.1C7.14,14.24,4,11.39,4,8.5C4,6.5,5.5,5,7.5,5c1.54,0,3.04,0.99,3.57,2.36h1.87C13.46,5.99,14.96,5,16.5,5
		c2,0,3.5,1.5,3.5,3.5C20,11.39,16.86,14.24,12.1,18.55z"/>
</g>
<g id="Fill" display="none">
	<g id="ui_x5F_spec_x5F_header_copy" display="inline">
	</g>
	<path display="inline" d="M16.5,3c-1.74,0-3.41,0.81-4.5,2.09C10.91,3.81,9.24,3,7.5,3C4.42,3,2,5.42,2,8.5
		c0,3.78,3.4,6.86,8.55,11.54L12,21.35l1.45-1.32C18.6,15.36,22,12.28,22,8.5C22,5.42,19.58,3,16.5,3z M12.1,18.55l-0.1,0.1
		l-0.1-0.1C7.14,14.24,4,11.39,4,8.5C4,6.5,5.5,5,7.5,5c1.54,0,3.04,0.99,3.57,2.36h1.87C13.46,5.99,14.96,5,16.5,5
		c2,0,3.5,1.5,3.5,3.5C20,11.39,16.86,14.24,12.1,18.55z"/>
</g>
<g id="nyt_x5F_exporter_x5F_info" display="none">
</g>
</symbol><symbol id="outline-local_mall-24px" viewBox="0 0 24 24">
<g id="Bounding_Boxes">
	<path fill="none" d="M0,0h24v24H0V0z"/>
</g>
<g id="Outline">
	<g id="ui_x5F_spec_x5F_header">
	</g>
	<g>
		<path d="M19,6h-2c0-2.76-2.24-5-5-5S7,3.24,7,6H5C3.9,6,3,6.9,3,8v12c0,1.1,0.9,2,2,2h14c1.1,0,2-0.9,2-2V8C21,6.9,20.1,6,19,6z
			 M12,3c1.66,0,3,1.34,3,3H9C9,4.34,10.34,3,12,3z M19,20L5,20V8h14V20z"/>
		<path d="M12,12c-1.66,0-3-1.34-3-3H7c0,2.76,2.24,5,5,5s5-2.24,5-5h-2C15,10.66,13.66,12,12,12z"/>
	</g>
</g>
</symbol><symbol id="outline-near_me-24px" viewBox="0 0 24 24">
<g id="Bounding_Boxes">
	<path fill="none" d="M0,0h24v24H0V0z"/>
</g>
<g id="Outline">
	<g id="ui_x5F_spec_x5F_header">
	</g>
	<path d="M17.27,6.73l-4.24,10.13l-1.32-3.42l-0.32-0.83l-0.82-0.32l-3.43-1.33L17.27,6.73 M21,3L3,10.53v0.98l6.84,2.65L12.48,21
		h0.98L21,3L21,3z"/>
</g>
</symbol><symbol id="outline-zoom_in-24px" viewBox="0 0 24 24">
<g id="Bounding_Boxes">
	<g id="ui_x5F_spec_x5F_header_copy_3">
	</g>
	<path fill="none" d="M0,0h24v24H0V0z"/>
</g>
<g id="Outline">
	<g id="ui_x5F_spec_x5F_header">
	</g>
	<g>
		<path d="M15.5,14h-0.79l-0.28-0.27C15.41,12.59,16,11.11,16,9.5C16,5.91,13.09,3,9.5,3S3,5.91,3,9.5C3,13.09,5.91,16,9.5,16
			c1.61,0,3.09-0.59,4.23-1.57L14,14.71v0.79l5,4.99L20.49,19L15.5,14z M9.5,14C7.01,14,5,11.99,5,9.5S7.01,5,9.5,5S14,7.01,14,9.5
			S11.99,14,9.5,14z"/>
		<polygon points="10,7 9,7 9,9 7,9 7,10 9,10 9,12 10,12 10,10 12,10 12,9 10,9 		"/>
	</g>
</g>
</symbol></svg>